<svg id="visual" viewBox="0 0 1500 1100" width="1500" height="1100" xmlns="http://www.w3.org/2000/svg" xmlns:xlink="http://www.w3.org/1999/xlink" version="1.1"><path d="M0 100L22.7 96.3C45.3 92.7 90.7 85.3 136.2 89C181.7 92.7 227.3 107.3 272.8 111C318.3 114.7 363.7 107.3 409 114.7C454.3 122 499.7 144 545.2 155C590.7 166 636.3 166 681.8 167.8C727.3 169.7 772.7 173.3 818.2 180.7C863.7 188 909.3 199 954.8 191.7C1000.3 184.3 1045.7 158.7 1091 156.8C1136.3 155 1181.7 177 1227.2 169.7C1272.7 162.3 1318.3 125.7 1363.8 127.5C1409.3 129.3 1454.7 169.7 1477.3 189.8L1500 210L1500 0L1477.3 0C1454.7 0 1409.3 0 1363.8 0C1318.3 0 1272.7 0 1227.2 0C1181.7 0 1136.3 0 1091 0C1045.7 0 1000.3 0 954.8 0C909.3 0 863.7 0 818.2 0C772.7 0 727.3 0 681.8 0C636.3 0 590.7 0 545.2 0C499.7 0 454.3 0 409 0C363.7 0 318.3 0 272.8 0C227.3 0 181.7 0 136.2 0C90.7 0 45.3 0 22.7 0L0 0Z" fill="#7196a9"></path><path d="M0 606L22.7 595C45.3 584 90.7 562 136.2 536.3C181.7 510.7 227.3 481.3 272.8 486.8C318.3 492.3 363.7 532.7 409 516.2C454.3 499.7 499.7 426.3 545.2 406.2C590.7 386 636.3 419 681.8 442.8C727.3 466.7 772.7 481.3 818.2 483.2C863.7 485 909.3 474 954.8 464.8C1000.3 455.7 1045.7 448.3 1091 430C1136.3 411.7 1181.7 382.3 1227.2 378.7C1272.7 375 1318.3 397 1363.8 398.8C1409.3 400.7 1454.7 382.3 1477.3 373.2L1500 364L1500 208L1477.3 187.8C1454.7 167.7 1409.3 127.3 1363.8 125.5C1318.3 123.7 1272.7 160.3 1227.2 167.7C1181.7 175 1136.3 153 1091 154.8C1045.7 156.7 1000.3 182.3 954.8 189.7C909.3 197 863.7 186 818.2 178.7C772.7 171.3 727.3 167.7 681.8 165.8C636.3 164 590.7 164 545.2 153C499.7 142 454.3 120 409 112.7C363.7 105.3 318.3 112.7 272.8 109C227.3 105.3 181.7 90.7 136.2 87C90.7 83.3 45.3 90.7 22.7 94.3L0 98Z" fill="#5a859a"></path><path d="M0 892L22.7 873.7C45.3 855.3 90.7 818.7 136.2 793C181.7 767.3 227.3 752.7 272.8 747.2C318.3 741.7 363.7 745.3 409 749C454.3 752.7 499.7 756.3 545.2 756.3C590.7 756.3 636.3 752.7 681.8 754.5C727.3 756.3 772.7 763.7 818.2 776.5C863.7 789.3 909.3 807.7 954.8 805.8C1000.3 804 1045.7 782 1091 774.7C1136.3 767.3 1181.7 774.7 1227.2 758.2C1272.7 741.7 1318.3 701.3 1363.8 692.2C1409.3 683 1454.7 705 1477.3 716L1500 727L1500 362L1477.3 371.2C1454.7 380.3 1409.3 398.7 1363.8 396.8C1318.3 395 1272.7 373 1227.2 376.7C1181.7 380.3 1136.3 409.7 1091 428C1045.7 446.3 1000.3 453.7 954.8 462.8C909.3 472 863.7 483 818.2 481.2C772.7 479.3 727.3 464.7 681.8 440.8C636.3 417 590.7 384 545.2 404.2C499.7 424.3 454.3 497.7 409 514.2C363.7 530.7 318.3 490.3 272.8 484.8C227.3 479.3 181.7 508.7 136.2 534.3C90.7 560 45.3 582 22.7 593L0 604Z" fill="#43748b"></path><path d="M0 958L22.7 954.3C45.3 950.7 90.7 943.3 136.2 934.2C181.7 925 227.3 914 272.8 895.7C318.3 877.3 363.7 851.7 409 844.3C454.3 837 499.7 848 545.2 853.5C590.7 859 636.3 859 681.8 862.7C727.3 866.3 772.7 873.7 818.2 881C863.7 888.3 909.3 895.7 954.8 906.7C1000.3 917.7 1045.7 932.3 1091 925C1136.3 917.7 1181.7 888.3 1227.2 866.3C1272.7 844.3 1318.3 829.7 1363.8 824.2C1409.3 818.7 1454.7 822.3 1477.3 824.2L1500 826L1500 725L1477.3 714C1454.7 703 1409.3 681 1363.8 690.2C1318.3 699.3 1272.7 739.7 1227.2 756.2C1181.7 772.7 1136.3 765.3 1091 772.7C1045.7 780 1000.3 802 954.8 803.8C909.3 805.7 863.7 787.3 818.2 774.5C772.7 761.7 727.3 754.3 681.8 752.5C636.3 750.7 590.7 754.3 545.2 754.3C499.7 754.3 454.3 750.7 409 747C363.7 743.3 318.3 739.7 272.8 745.2C227.3 750.7 181.7 765.3 136.2 791C90.7 816.7 45.3 853.3 22.7 871.7L0 890Z" fill="#3a6478"></path><path d="M0 1101L22.7 1101C45.3 1101 90.7 1101 136.2 1101C181.7 1101 227.3 1101 272.8 1101C318.3 1101 363.7 1101 409 1101C454.3 1101 499.7 1101 545.2 1101C590.7 1101 636.3 1101 681.8 1101C727.3 1101 772.7 1101 818.2 1101C863.7 1101 909.3 1101 954.8 1101C1000.3 1101 1045.7 1101 1091 1101C1136.3 1101 1181.7 1101 1227.2 1101C1272.7 1101 1318.3 1101 1363.8 1101C1409.3 1101 1454.7 1101 1477.3 1101L1500 1101L1500 824L1477.3 822.2C1454.7 820.3 1409.3 816.7 1363.8 822.2C1318.3 827.7 1272.7 842.3 1227.2 864.3C1181.7 886.3 1136.3 915.7 1091 923C1045.7 930.3 1000.3 915.7 954.8 904.7C909.3 893.7 863.7 886.3 818.2 879C772.7 871.7 727.3 864.3 681.8 860.7C636.3 857 590.7 857 545.2 851.5C499.7 846 454.3 835 409 842.3C363.7 849.7 318.3 875.3 272.8 893.7C227.3 912 181.7 923 136.2 932.2C90.7 941.3 45.3 948.7 22.7 952.3L0 956Z" fill="#315566"></path></svg>